
<svg data-v-423bf9ae="" xmlns="http://www.w3.org/2000/svg" viewBox="0 0 459 90" class="iconLeft"><!----><!----><!----><g data-v-423bf9ae="" id="584568d4-a021-4024-a025-cdb358583c27" fill="#0467E1" transform="matrix(5.272407679843658,0,0,5.272407679843658,115.11047328723328,18.69068370371315)"><path d="M0.25 10.50L3.12-0.48L5.71-0.48L8.58 10.50L6.57 10.50L5.96 8.01L2.88 8.01L2.28 10.50L0.25 10.50ZM5.56 6.37L4.42 1.67L3.28 6.37L5.56 6.37ZM11.49 10.50L9.67 10.50L9.67-0.70L11.49-0.70L11.49 10.50ZM14.99 10.50L13.17 10.50L13.17-0.70L14.99-0.70L14.99 10.50ZM22.65-0.42L24.43-0.42L24.43 10.50L22.44 10.50L18.41 2.97L18.47 5.28L18.47 10.50L16.69 10.50L16.69-0.42L18.68-0.42L22.71 7.11L22.65 4.80L22.65-0.42ZM32.51 6.61L32.51 7.46L27.61 7.46L27.61 7.46Q27.71 9.27 29.27 9.27L29.27 9.27L29.27 9.27Q29.97 9.27 30.38 8.93L30.38 8.93L30.38 8.93Q30.79 8.58 30.79 8.12L30.79 8.12L32.51 8.12L32.51 8.18L32.51 8.18Q32.51 9.23 31.65 9.95L31.65 9.95L31.65 9.95Q30.79 10.68 29.26 10.68L29.26 10.68L29.26 10.68Q27.54 10.68 26.66 9.66L26.66 9.66L26.66 9.66Q25.79 8.64 25.79 6.97L25.79 6.97L25.79 6.61L25.79 6.61Q25.79 4.94 26.66 3.92L26.66 3.92L26.66 3.92Q27.52 2.90 29.19 2.90L29.19 2.90L29.19 2.90Q30.83 2.90 31.67 3.92L31.67 3.92L31.67 3.92Q32.51 4.94 32.51 6.61L32.51 6.61ZM29.15 4.31L29.15 4.31L29.15 4.31Q27.72 4.31 27.61 6.12L27.61 6.12L30.67 6.12L30.67 6.12Q30.59 4.31 29.15 4.31ZM39.52 10.50L38.28 5.00L37.03 10.50L34.72 10.50L33.35 3.08L35.13 3.08L35.92 8.54L37.18 3.08L39.37 3.08L40.63 8.54L41.43 3.08L43.22 3.08L41.83 10.50L39.52 10.50ZM47.21 9.27L47.21 9.27L47.21 9.27Q47.84 9.27 48.16 9.02L48.16 9.02L48.16 9.02Q48.48 8.76 48.48 8.34L48.48 8.34L48.48 8.34Q48.48 7.87 48.17 7.67L48.17 7.67L48.17 7.67Q47.87 7.46 47.07 7.39L47.07 7.39L47.07 7.39Q45.53 7.27 44.87 6.80L44.87 6.80L44.87 6.80Q44.21 6.33 44.21 5.35L44.21 5.35L44.21 5.24L44.21 5.24Q44.21 4.09 45.03 3.49L45.03 3.49L45.03 3.49Q45.85 2.90 47.21 2.90L47.21 2.90L47.21 2.90Q50.22 2.90 50.22 5.43L50.22 5.43L50.22 5.50L48.44 5.50L48.44 5.50Q48.44 4.31 47.21 4.31L47.21 4.31L47.21 4.31Q46.63 4.31 46.32 4.55L46.32 4.55L46.32 4.55Q46.00 4.79 46.00 5.19L46.00 5.19L46.00 5.19Q46.00 5.63 46.29 5.83L46.29 5.83L46.29 5.83Q46.58 6.03 47.36 6.09L47.36 6.09L47.36 6.09Q48.87 6.22 49.59 6.66L49.59 6.66L49.59 6.66Q50.30 7.11 50.30 8.18L50.30 8.18L50.30 8.27L50.30 8.27Q50.30 9.39 49.51 10.04L49.51 10.04L49.51 10.04Q48.72 10.68 47.21 10.68L47.21 10.68L47.21 10.68Q45.68 10.68 44.90 10.00L44.90 10.00L44.90 10.00Q44.11 9.31 44.11 8.23L44.11 8.23L44.11 8.18L45.92 8.18L45.92 8.18Q45.92 9.27 47.21 9.27ZM51.65 8.53L53.63 8.53L53.63 10.50L51.65 10.50L51.65 8.53ZM57.05 10.50L55.23 10.50L55.23 3.08L57.05 3.08L57.05 10.50ZM55.15-0.18L57.13-0.18L57.13 1.79L55.15 1.79L55.15-0.18ZM65.11 6.61L65.11 7.46L60.21 7.46L60.21 7.46Q60.31 9.27 61.88 9.27L61.88 9.27L61.88 9.27Q62.58 9.27 62.99 8.93L62.99 8.93L62.99 8.93Q63.39 8.58 63.39 8.12L63.39 8.12L65.11 8.12L65.11 8.18L65.11 8.18Q65.11 9.23 64.25 9.95L64.25 9.95L64.25 9.95Q63.39 10.68 61.87 10.68L61.87 10.68L61.87 10.68Q60.14 10.68 59.27 9.66L59.27 9.66L59.27 9.66Q58.39 8.64 58.39 6.97L58.39 6.97L58.39 6.61L58.39 6.61Q58.39 4.94 59.26 3.92L59.26 3.92L59.26 3.92Q60.13 2.90 61.80 2.90L61.80 2.90L61.80 2.90Q63.43 2.90 64.27 3.92L64.27 3.92L64.27 3.92Q65.11 4.94 65.11 6.61L65.11 6.61ZM61.75 4.31L61.75 4.31L61.75 4.31Q60.33 4.31 60.21 6.12L60.21 6.12L63.28 6.12L63.28 6.12Q63.20 4.31 61.75 4.31Z"></path></g><!----><g data-v-423bf9ae="" id="b03cb1b6-49dd-494b-9ffd-3a33a64105d0" transform="matrix(1.0714285714285714,0,0,1.0714285714285714,-5.607142857142854,-7.535714285714285)" stroke="none" fill="#0467E1"><path d="M43.5 29.609l-.11-.109h-1.414l1.524 1.531zM43.5 38.145L34.906 29.5h-1.415L43.5 39.566zM36.76 65.5L5.5 34.063v1.421L35.346 65.5zM33.932 65.5L5.5 36.906v1.422L32.518 65.5zM43.5 55.213L17.935 29.5h-1.414L43.5 56.635zM43.5 35.299L37.734 29.5H36.32l7.18 7.221zM42.417 65.5l-35.796-36H5.5v.295L41.002 65.5zM43.5 40.988L32.077 29.5h-1.414L43.5 42.41zM43.5 32.455L40.562 29.5h-1.414l4.352 4.377zM14.134 65.5L5.5 56.799v1.422l7.221 7.279zM43.5 58.057L15.106 29.5h-1.414L43.5 59.479zM8.035 29.5L43.5 65.168v-1.424L9.449 29.5zM43.5 60.9L12.278 29.5h-1.415L43.5 62.322zM39.588 65.5L5.5 31.219v1.422L38.174 65.5zM22.616 65.5L5.5 48.281v1.418L21.202 65.5zM25.445 65.5L5.5 45.439v1.422L24.031 65.5zM43.5 43.834L29.248 29.5h-1.414L43.5 45.256zM43.5 49.523L23.591 29.5h-1.414L43.5 50.945zM16.961 65.5L5.5 53.957v1.42L15.548 65.5zM19.789 65.5L5.5 51.119v1.418L18.375 65.5zM43.5 52.367L20.763 29.5h-1.414L43.5 53.789zM11.307 65.5L5.5 59.643v1.423L9.893 65.5zM8.479 65.5L5.5 62.492v1.426L7.065 65.5zM31.104 65.5L5.5 39.75v1.424L29.689 65.5zM28.273 65.5L5.5 42.596v1.422L26.859 65.5zM43.5 46.678L26.42 29.5h-1.414L43.5 48.1zM5.5 17.5h67v6h-67zM49.5 29.5h46v4h-46zM5.5 87.5h45v4h-45zM5.5 71.5h83v4h-83zM5.5 79.5h90v4h-90zM49.5 53.5h46v4h-46zM49.5 37.5h29v4h-29zM49.5 61.5h29v4h-29zM49.5 45.5h39v4h-39zM5.5 7.5h90v6h-90z"></path></g><!----></svg>
